HIERARCHY
ROOT Model_Hips
{
	OFFSET 0.000000 96.915077 0.000000
	CHANNELS 6 Xposition Yposition Zposition Xrotation Yrotation Zrotation
	JOINT Model_Spine
	{
		OFFSET 0.000000 11.137703 -1.289900
		CHANNELS 3 Xrotation Yrotation Zrotation
		JOINT Model_Spine1
		{
			OFFSET 0.000000 12.993942 -1.504922
			CHANNELS 3 Xrotation Yrotation Zrotation
			JOINT Model_Spine2
			{
				OFFSET 0.000000 14.850220 -1.719911
				CHANNELS 3 Xrotation Yrotation Zrotation
				JOINT Model_Neck
				{
					OFFSET 0.000000 16.706543 -1.934903
					CHANNELS 3 Xrotation Yrotation Zrotation
					JOINT Model_Head
					{
						OFFSET 0.000000 10.471298 2.002100
						CHANNELS 3 Xrotation Yrotation Zrotation
						JOINT Model_HeadTop_End
						{
							OFFSET 0.000000 20.842606 3.985100
							CHANNELS 3 Xrotation Yrotation Zrotation
							End Site
							{
								OFFSET 0.000000 21.220154 0.000000
							}
						}
					}
				}
				JOINT Model_LeftShoulder
				{
					OFFSET 7.008500 14.768600 -1.919946
					CHANNELS 3 Xrotation Yrotation Zrotation
					JOINT Model_LeftArm
					{
						OFFSET 14.126271 -3.718048 0.029937
						CHANNELS 3 Xrotation Yrotation Zrotation
						JOINT Model_LeftForeArm
						{
							OFFSET 28.282801 0.000000 0.000000
							CHANNELS 3 Xrotation Yrotation Zrotation
							JOINT Model_LeftHand
							{
								OFFSET 26.204689 0.000000 0.000000
								CHANNELS 3 Xrotation Yrotation Zrotation
								End Site
								{
									OFFSET 26.204704 0.000000 0.000000
								}
							}
						}
					}
				}
				JOINT Model_RightShoulder
				{
					OFFSET -7.008500 14.768555 -1.949840
					CHANNELS 3 Xrotation Yrotation Zrotation
					JOINT Model_RightArm
					{
						OFFSET -14.126281 -3.718018 -0.029932
						CHANNELS 3 Xrotation Yrotation Zrotation
						JOINT Model_RightForeArm
						{
							OFFSET -28.283798 0.000000 -0.000001
							CHANNELS 3 Xrotation Yrotation Zrotation
							JOINT Model_RightHand
							{
								OFFSET -26.204193 0.000000 -0.000001
								CHANNELS 3 Xrotation Yrotation Zrotation
								End Site
								{
									OFFSET -26.204208 0.000000 -0.000001
								}
							}
						}
					}
				}
			}
		}
	}
	JOINT Model_LeftUpLeg
	{
		OFFSET 8.327700 -6.193199 -0.402800
		CHANNELS 3 Xrotation Yrotation Zrotation
		JOINT Model_LeftLeg
		{
			OFFSET 0.735802 -42.108742 -0.610721
			CHANNELS 3 Xrotation Yrotation Zrotation
			JOINT Model_LeftFoot
			{
				OFFSET -0.735806 -36.833748 -0.172876
				CHANNELS 3 Xrotation Yrotation Zrotation
				JOINT Model_LeftToeBase
				{
					OFFSET -0.565857 -11.977769 16.297714
					CHANNELS 3 Xrotation Yrotation Zrotation
					JOINT Model_LeftToe_End
					{
						OFFSET -0.111712 -0.312793 7.857784
						CHANNELS 3 Xrotation Yrotation Zrotation
						End Site
						{
							OFFSET -0.111712 -0.312793 7.857784
						}
					}
				}
			}
		}
	}
	JOINT Model_RightUpLeg
	{
		OFFSET -8.327700 -6.193199 -0.516500
		CHANNELS 3 Xrotation Yrotation Zrotation
		JOINT Model_RightLeg
		{
			OFFSET -0.735785 -42.108738 -0.434061
			CHANNELS 3 Xrotation Yrotation Zrotation
			JOINT Model_RightFoot
			{
				OFFSET 0.735776 -36.833748 -0.021630
				CHANNELS 3 Xrotation Yrotation Zrotation
				JOINT Model_RightToeBase
				{
					OFFSET 0.565817 -11.977745 15.903093
					CHANNELS 3 Xrotation Yrotation Zrotation
					JOINT Model_RightToe_End
					{
						OFFSET 0.111702 -0.312791 7.811342
						CHANNELS 3 Xrotation Yrotation Zrotation
						End Site
						{
							OFFSET 0.111702 -0.312791 7.811342
						}
					}
				}
			}
		}
	}
}
MOTION
Frames: 14
Frame Time: 0.016667
-0.416664 92.361328 0.737255 2.739210 -6.707761 5.094061 10.033400 -1.978221 -2.745119 0.774931 4.068397 -0.775403 0.466738 -0.577426 0.185385 -1.810399 1.053619 -0.056798 -1.810386 1.053655 -0.056961 0.000001 0.000000 0.000000 1.759072 0.590337 -10.212204 4.533541 -36.207929 -51.460254 -0.000047 -75.120230 -0.000040 -0.000000 -0.000001 -0.000000 2.530596 -5.482481 9.206697 -7.864189 20.684944 66.617062 0.000027 31.359004 -0.000015 -0.000001 -0.000002 0.000000 -40.342325 10.710613 6.935619 92.945330 8.726776 -2.850232 3.269729 1.150419 -12.866589 3.508092 0.000009 -0.000002 -0.000001 -0.000001 -0.000001 -22.088892 -6.418171 -2.157073 50.411963 -6.784296 -3.123937 -26.495683 -1.011935 3.411351 -1.220548 0.114145 -1.898152 0.000000 0.000002 0.000000 
-0.306965 90.854492 -3.444004 1.975709 -7.291601 4.980804 12.396826 -2.669674 -2.688022 0.246950 3.805111 -0.525255 -0.046806 -0.851560 0.392538 -1.809524 1.218245 -0.059174 -1.811046 1.296473 -0.058634 -0.000000 0.000000 -0.000000 2.049594 0.701554 -8.961060 -0.195498 -38.285761 -52.142163 -0.000039 -73.547081 -0.000035 0.000002 -0.000003 -0.000004 2.517574 -5.835793 8.862962 -5.909076 19.663440 63.374231 0.000000 30.139644 0.000020 -0.000000 -0.000001 0.000000 -38.245644 10.919689 6.904450 96.265472 8.858204 -2.472460 2.080360 0.574122 -13.205972 3.961660 -0.000005 -0.000005 -0.000001 0.000000 0.000000 -26.535338 -6.425424 -2.582648 55.490400 -6.171902 -2.011709 -27.808506 -0.370069 1.749894 1.303232 0.077021 -1.779398 -0.000001 0.000000 -0.000000 
-0.222229 89.736404 -7.311996 1.130342 -7.704178 4.781153 14.476922 -3.366176 -2.624408 -0.337610 3.532854 -0.267758 -0.615922 -1.130724 0.618294 -1.722282 1.383556 -0.040153 -1.725426 1.547666 -0.038838 0.000000 0.000001 -0.000000 2.316068 0.863550 -7.154880 -4.696533 -39.965674 -54.089948 0.000011 -71.298200 0.000026 -0.000000 0.000001 -0.000000 2.481206 -6.138682 8.340780 -3.789692 17.873017 60.667434 0.000008 29.140920 -0.000006 -0.000000 0.000002 -0.000001 -35.661268 11.142058 6.663166 98.462655 8.773835 -2.088615 1.391102 0.609898 -13.382268 4.054843 0.000008 -0.000008 0.000000 -0.000001 -0.000001 -30.075970 -6.858921 -3.024395 58.648847 -5.595162 -0.743231 -27.186687 0.480446 -0.794353 2.012359 0.034833 -1.002754 -0.000000 0.000000 0.000000 
-0.173373 89.028587 -11.080278 0.134429 -8.062696 4.278028 16.306056 -3.883348 -2.322733 -0.960254 3.297638 0.058030 -1.216872 -1.367367 0.920440 -1.515412 1.577244 -0.098209 -1.519835 1.832613 -0.096086 -0.000000 0.000000 0.000000 2.547293 0.984757 -5.602189 -8.843060 -41.304572 -56.422485 -0.000026 -68.517220 -0.000016 -0.000003 -0.000001 0.000000 2.436406 -6.444418 7.748942 -1.474502 15.668124 58.451775 0.000007 28.511868 -0.000008 0.000000 0.000000 0.000000 -32.208051 11.336235 6.462740 99.565669 8.938215 -1.735742 1.563283 1.325471 -13.273142 3.422478 0.000004 0.000006 0.000000 0.000000 -0.000001 -32.429154 -7.479817 -3.168666 59.730462 -4.551280 0.400902 -25.426458 1.051469 -2.919415 2.630248 0.027564 -0.850322 0.000000 -0.000001 0.000001 
-0.194861 88.754204 -14.537562 -0.688609 -8.479697 3.713883 17.496607 -4.159157 -2.040972 -1.568056 3.149761 0.403498 -1.801895 -1.511397 1.248377 -1.336466 1.770418 -0.208676 -1.341564 2.120126 -0.205744 0.000001 0.000000 0.000000 2.744110 1.134599 -4.805989 -11.754115 -42.512651 -58.204427 -0.000052 -65.540617 -0.000039 0.000003 0.000000 -0.000002 2.393451 -6.796103 7.150062 1.111259 13.312008 56.837754 -0.000003 28.357110 -0.000004 -0.000001 0.000001 0.000000 -28.357929 11.836940 6.203126 99.140674 9.676185 -1.468056 3.250767 2.596065 -11.389554 3.137913 -0.000002 -0.000006 -0.000000 -0.000001 0.000002 -33.785466 -7.879619 -2.786920 59.007268 -3.302885 1.013636 -23.132673 1.239010 -4.204012 3.836389 0.035113 -1.275481 -0.000001 0.000003 -0.000000 
-0.288882 89.233574 -17.619324 -1.523706 -8.924769 3.197758 18.213125 -4.212814 -1.747848 -2.068990 3.082476 0.649654 -2.284660 -1.623190 1.493464 -1.174985 1.951486 -0.348609 -1.180056 2.396294 -0.344892 0.000000 0.000000 -0.000000 2.885478 1.298487 -4.842584 -13.090368 -43.434208 -59.179074 -0.000011 -62.753087 -0.000013 -0.000000 -0.000001 0.000000 2.364497 -7.228545 6.636269 3.898879 11.195185 55.862942 0.000010 28.595975 -0.000007 -0.000001 -0.000001 -0.000000 -24.199061 12.276931 6.164626 97.581929 9.106067 -1.293914 3.068168 3.650149 -12.887875 3.873790 0.000004 0.000003 0.000000 -0.000000 -0.000000 -33.642834 -8.005255 -1.866371 55.747919 -2.518059 1.250286 -19.570338 1.253554 -5.335371 4.645564 0.026753 -1.292772 0.000001 0.000002 -0.000000 
-0.432132 89.931137 -20.772358 -2.093281 -9.458036 2.864140 18.444106 -4.409926 -1.712239 -2.546390 2.990786 0.825327 -2.747964 -1.744424 1.669700 -1.060161 2.112096 -0.440187 -1.065017 2.650478 -0.435723 0.000001 0.000000 0.000000 2.960653 1.617144 -4.957157 -13.371359 -43.597453 -60.184772 -0.000041 -59.861267 -0.000024 -0.000003 0.000001 -0.000001 2.361136 -7.751925 6.295629 6.698290 9.654913 55.483235 -0.000007 29.061768 0.000035 -0.000001 -0.000000 0.000002 -19.865079 12.936127 5.734119 94.264991 9.702349 -1.156038 5.531481 4.621590 -12.202501 4.516758 -0.000005 -0.000006 -0.000001 0.000000 -0.000001 -33.357677 -8.023877 -0.915760 51.449489 -1.896284 1.443052 -14.649716 1.089552 -6.386992 4.252229 0.035045 -1.478631 0.000001 -0.000000 0.000000 
-0.696243 91.150841 -23.767433 -2.349032 -9.796793 2.538378 18.011472 -4.627138 -1.644644 -2.869849 2.893767 0.817213 -3.067714 -1.890428 1.670866 -0.939797 2.228772 -0.449996 -0.944895 2.856870 -0.444810 0.000000 -0.000000 -0.000000 3.006729 1.998651 -5.106641 -13.176909 -43.392626 -61.191125 -0.000009 -56.884647 0.000005 -0.000001 -0.000002 -0.000001 2.391148 -8.356760 6.165267 9.313829 8.793509 55.611373 -0.000001 29.750217 0.000003 -0.000001 0.000000 -0.000000 -15.932256 13.152535 5.190374 89.461449 9.639102 -0.906774 8.935473 5.086498 -12.651880 4.397300 0.000008 -0.000004 -0.000001 0.000001 -0.000000 -32.046489 -7.919946 0.104843 44.648178 -1.021600 1.701096 -7.880009 0.619446 -6.765173 2.600204 0.085234 -2.237639 -0.000000 0.000000 0.000000 
-0.877534 92.676369 -26.737463 -2.246826 -10.065476 2.458588 17.854096 -5.102947 -1.727770 -3.357054 2.720998 0.767483 -3.557524 -2.021126 1.597914 -0.863128 2.340634 -0.437767 -0.868557 3.051252 -0.431917 0.000000 0.000001 0.000000 3.038581 2.357040 -5.265316 -12.975467 -42.841221 -62.308353 -0.000004 -53.627206 0.000017 -0.000000 -0.000002 -0.000001 2.452242 -9.023494 6.192378 11.668661 8.443291 56.170605 0.000005 30.992745 0.000001 0.000000 0.000000 0.000002 -12.625223 13.014901 4.278725 83.517914 9.325702 -0.513071 13.324532 4.422218 -15.122572 3.887043 0.000003 -0.000007 -0.000001 0.000000 -0.000002 -29.689562 -7.543850 1.038223 34.768139 -0.009248 1.832760 1.213437 -0.108315 -6.223100 -0.782035 0.208389 -3.333985 0.000000 0.000001 0.000000 
-1.019500 94.127083 -29.281662 -1.936253 -10.274438 2.473734 15.975997 -5.489390 -1.554159 -3.128337 2.529751 0.470939 -3.344172 -2.159592 1.302031 -0.823574 2.440110 -0.426357 -0.829239 3.226894 -0.419903 -0.000000 0.000001 0.000000 3.044600 2.640784 -5.433574 -12.899046 -41.592823 -63.669562 -0.000005 -49.742837 -0.000007 -0.000003 0.000000 -0.000002 2.525917 -9.707643 6.240663 13.809613 8.348965 57.113707 -0.000003 33.299068 0.000020 -0.000000 -0.000000 0.000000 -9.173239 12.536252 3.010175 76.947463 9.392343 -0.137284 16.874939 2.680417 -17.664278 3.294244 -0.000004 -0.000009 -0.000000 0.000001 0.000001 -26.266874 -6.957267 2.053543 23.178028 1.292472 1.774113 9.898454 -0.750258 -5.362811 -1.310959 0.185670 -3.393507 -0.000000 0.000000 0.000001 
-1.167784 95.481964 -30.985315 -1.360228 -10.370485 2.519712 9.653549 -5.429211 -0.679523 -1.027689 2.366459 -0.379452 -1.284537 -2.311477 0.531820 -0.851515 2.507199 -0.439454 -0.856998 3.358340 -0.432517 -0.000000 -0.000001 -0.000000 3.008349 2.509765 -5.611468 -12.318429 -39.320491 -64.290269 -0.000005 -46.789818 -0.000010 0.000000 0.000001 -0.000002 2.578185 -10.301629 6.154155 15.761430 8.435768 58.392080 -0.000003 36.918498 -0.000001 -0.000000 0.000000 0.000000 -5.197632 11.849636 1.521368 69.461159 8.695208 0.032628 17.738841 0.880212 -18.454649 2.771405 0.000001 -0.000005 0.000001 -0.000001 0.000001 -23.970960 -6.006522 2.296445 14.185843 2.688139 1.285695 17.284617 -0.403671 1.266142 -0.026329 0.490954 -5.505338 0.000000 0.000002 -0.000000 
-1.245592 96.663177 -32.946281 -0.635127 -10.697140 2.531936 4.702593 -5.171949 -0.045916 0.660514 2.323443 -0.950709 0.601370 -2.337381 0.009647 -0.955013 2.539445 -0.461839 -0.960061 3.441883 -0.454532 0.000000 0.000001 -0.000000 2.961349 2.373641 -5.810811 -11.668422 -36.827663 -64.615181 -0.000017 -44.042655 -0.000005 0.000001 -0.000002 -0.000001 2.573376 -10.620608 5.844674 17.372380 8.901104 59.897706 0.000021 41.545247 0.000004 0.000001 -0.000001 0.000001 -1.579156 11.211525 -0.017243 61.115003 8.289558 -0.030641 18.430702 -0.631106 -18.953440 2.472827 0.000005 -0.000008 -0.000000 -0.000001 0.000001 -22.688960 -5.578779 2.461243 6.744963 2.377428 0.746564 26.007072 0.861616 8.204652 -2.102898 0.699218 -6.527315 -0.000001 0.000000 -0.000001 
-1.298163 97.738853 -35.449715 0.117720 -11.162324 2.522258 1.329504 -4.855590 0.339794 1.756316 2.360982 -1.278669 1.931238 -2.287120 -0.295506 -1.136570 2.573219 -0.518073 -1.140606 3.511588 -0.510547 0.000000 0.000000 -0.000000 2.929827 2.601085 -6.056297 -11.218081 -34.626464 -64.786824 0.000006 -40.964015 -0.000000 0.000001 0.000001 -0.000001 2.496911 -10.454051 5.342571 18.307231 10.040545 61.444901 0.000017 46.447533 0.000006 0.000000 -0.000002 0.000001 1.693660 10.619074 -1.393738 52.275334 7.509289 -0.219192 19.315461 -1.524850 -19.378961 2.430233 0.000002 -0.000003 -0.000001 -0.000000 -0.000000 -22.556073 -5.348170 3.046102 2.417964 -1.631305 0.269660 32.417317 0.799100 12.319447 -0.509957 1.105132 -8.202218 -0.000001 0.000001 -0.000002 
-1.249305 99.084251 -38.756439 0.757798 -11.942495 2.416004 0.067937 -4.416322 0.638894 2.137100 2.530702 -1.303955 2.271631 -2.116310 -0.312052 -1.284918 2.584627 -0.593791 -1.287647 3.538340 -0.586216 0.000000 -0.000000 0.000000 2.899907 2.858145 -6.307166 -10.675618 -32.620731 -64.657747 -0.000003 -37.970227 0.000003 -0.000002 0.000003 -0.000001 2.364222 -9.661329 4.768227 18.225170 11.992580 62.845950 0.000005 50.897501 0.000011 0.000000 -0.000000 -0.000000 5.142577 10.032823 -2.767982 41.946032 6.974924 -0.428351 21.336567 -2.299003 -19.734483 -1.772647 -0.356104 4.598664 0.000003 -0.000000 -0.000001 -23.487012 -5.248744 3.355236 1.669142 -4.736809 0.163493 32.397394 0.266145 17.517731 4.114453 0.002539 -0.400347 0.000001 0.000002 -0.000000 
